<?xml version="1.0" encoding="utf-8"?>
<!-- Generator: Adobe Illustrator 19.2.0, SVG Export Plug-In . SVG Version: 6.00 Build 0)  -->
<svg version="1.1" id="Layer_1" xmlns="http://www.w3.org/2000/svg" xmlns:xlink="http://www.w3.org/1999/xlink" x="0px" y="0px"
	 viewBox="0 0 143.2 34.5" style="enable-background:new 0 0 143.2 34.5;" xml:space="preserve">
<style type="text/css">
	.st0{display:none;}
	.st1{display:inline;fill:#D7A75B;}
	.st2{fill:#666666;}
</style>
<g class="st0">
	<path class="st1" d="M14.9,6.3c0,0,3.3,10.6-0.9,13.6c-1.4,1-9.3,5.3-11,3.7c-1.5-1.4-0.4-8,0.2-9.9C4.2,10.8,8.9,6.3,14.9,6.3z"/>
</g>
<g>
	<g>
		<path class="st2" d="M43,12.4h2.9V19l0,0c0.8-1.1,1.8-1.7,3.4-1.7c3.5,0,4.7,2.8,4.7,5.9s-1.3,5.9-4.7,5.9c-1.2,0-2.6-0.4-3.5-1.6
			l0,0v1.4H43L43,12.4L43,12.4z M48.5,26.8c1.9,0,2.5-2.1,2.5-3.6s-0.5-3.6-2.4-3.6s-2.6,2-2.6,3.6C46,24.7,46.5,26.8,48.5,26.8z"/>
	</g>
	<g>
		<path class="st2" d="M61.5,17.2c3.3,0,5.9,2.2,5.9,6c0,3.2-2.2,5.8-5.9,5.8c-3.7,0-5.9-2.6-5.9-5.8C55.7,19.5,58.2,17.2,61.5,17.2
			z M61.5,26.8c2.2,0,2.8-2,2.8-3.9c0-1.7-0.9-3.3-2.8-3.3c-1.9,0-2.8,1.7-2.8,3.3C58.7,24.7,59.2,26.8,61.5,26.8z"/>
	</g>
	<g>
		<path class="st2" d="M69.7,17.5h2.7v1.6l0,0c0.9-1.4,2.2-1.8,3.3-1.8c1.6,0,2.7,0.6,3.3,2c0.7-1.4,2.1-2,3.5-2
			c2.8,0,3.6,1.9,3.6,4.4v7.1h-2.8v-6.7c0-1,0-2.5-1.7-2.5c-1.9,0-2.2,2.3-2.2,3.8v5.5h-2.9v-6.7c0-1,0-2.5-1.7-2.5
			c-1.9,0-2.2,2.3-2.2,3.8V29h-2.9L69.7,17.5L69.7,17.5z"/>
	</g>
	<g>
		<path class="st2" d="M98.2,28.1c-1.1,0.6-2.3,0.9-3.9,0.9c-3.7,0-5.9-2.1-5.9-5.8c0-3.3,1.7-5.9,5.2-5.9c4.2,0,5.4,2.9,5.4,6.8
			h-7.7c0.1,1.8,1.4,2.8,3.2,2.8c1.4,0,2.6-0.5,3.7-1.1L98.2,28.1L98.2,28.1z M96.2,22c-0.1-1.4-0.7-2.6-2.4-2.6s-2.5,1.1-2.6,2.6
			H96.2z"/>
	</g>
	<g>
		<path class="st2" d="M99.6,31.3c1.6-0.1,1.8-0.4,1.8-2.1V17.5h2.9v12.1c0,1.6-0.5,4-3.4,4c-0.5,0-1.1-0.1-1.4-0.2L99.6,31.3z
			 M101.3,12.7h2.9v2.8h-2.9V12.7z"/>
	</g>
	<g>
		<path class="st2" d="M116.3,28.1c-1.1,0.6-2.3,0.9-3.9,0.9c-3.7,0-5.9-2.1-5.9-5.8c0-3.3,1.7-5.9,5.2-5.9c4.2,0,5.4,2.9,5.4,6.8
			h-7.8c0.1,1.8,1.4,2.8,3.2,2.8c1.4,0,2.6-0.5,3.7-1.1L116.3,28.1L116.3,28.1z M114.4,22c-0.1-1.4-0.7-2.6-2.4-2.6
			c-1.6,0-2.5,1.1-2.6,2.6H114.4z"/>
	</g>
	<g>
		<path class="st2" d="M119.6,12.4h2.9v16.4h-2.9V12.4z"/>
	</g>
	<g>
		<path class="st2" d="M125.7,12.4h2.9v16.4h-2.9V12.4z"/>
	</g>
	<g>
		<path class="st2" d="M136.4,25.7L136.4,25.7l2.7-8.2h3l-4.2,11.2c-0.9,2.5-1.6,4.9-4.7,4.9c-0.7,0-1.4-0.1-2.1-0.3l0.2-2.2
			c0.4,0.1,0.8,0.2,1.5,0.2c1.2,0,1.9-0.8,1.9-2l-4.3-11.8h3.2L136.4,25.7z"/>
	</g>
</g>
<g>
	<path class="st2" d="M15.1,33.4c-7.6,0-13.9-6.2-13.9-13.9s6.3-14,13.9-14c7.7,0,13.9,6.3,13.9,13.9C29.1,27.2,22.9,33.4,15.1,33.4
		z M15.1,6.9c-6.9,0-12.5,5.7-12.5,12.6s5.6,12.6,12.5,12.6s12.6-5.6,12.6-12.6C27.8,12.6,22.1,6.9,15.1,6.9z"/>
</g>
<g>
	<path class="st2" d="M15.1,31.7c-3.4,0-6.1-2.8-6.1-6.1s2.8-6.1,6.1-6.1c3.4,0,6.1,2.8,6.1,6.1C21.4,28.9,18.5,31.7,15.1,31.7z
		 M15.1,20.3c-2.9,0-5.2,2.3-5.2,5.2s2.3,5.2,5.2,5.2s5.2-2.3,5.2-5.2C20.5,22.7,18,20.3,15.1,20.3z"/>
</g>
<g>
	<ellipse class="st2" cx="15.1" cy="23.3" rx="2.6" ry="1.9"/>
</g>
<g>
	<circle class="st2" cx="7.9" cy="19.9" r="1.6"/>
</g>
<g>
	<circle class="st2" cx="22.6" cy="19.9" r="1.6"/>
</g>
<g>
	<path class="st2" d="M23.2,9.6c-0.3,0-0.6-0.2-0.7-0.5l-1.6-5.5l-1.7,3.3c-0.2,0.4-0.6,0.5-1,0.3C18,7,17.8,6.6,18,6.3l2.5-4.7
		c0.2-0.3,0.5-0.4,0.8-0.4s0.5,0.2,0.6,0.5L24,8.8c0.1,0.4-0.1,0.7-0.5,0.8C23.4,9.6,23.2,9.6,23.2,9.6z"/>
</g>
<g>
	<path class="st2" d="M6.8,9.6c-0.1,0-0.1,0-0.2,0C6.3,9.5,6.2,9.1,6.2,8.7l2-7c0.1-0.3,0.3-0.5,0.6-0.5c0.3,0,0.5,0.1,0.7,0.4
		l2.6,4.7c0.1,0.3,0,0.7-0.3,0.9c-0.3,0.2-0.7,0.1-0.9-0.3L9.1,3.7L7.6,9.1C7.4,9.4,7.2,9.6,6.8,9.6z"/>
</g>
<g>
	<path class="st2" d="M24.2,16.4c-0.2,0-0.4-0.1-0.4-0.3c0,0-0.4-1.1-1.1-1.1l0,0c-0.8,0-1.4,1-1.4,1c-0.1,0.2-0.4,0.3-0.6,0.2
		s-0.3-0.4-0.2-0.6c0-0.1,0.8-1.4,2.1-1.5c1.4-0.1,2,1.7,2,1.8c0.1,0.2-0.1,0.5-0.3,0.6C24.4,16.4,24.2,16.4,24.2,16.4z"/>
</g>
<g>
	<path class="st2" d="M6.1,16.4L6.1,16.4c-0.3-0.1-0.5-0.3-0.4-0.6c0-0.1,0.6-1.8,2-1.8c0,0,0,0,0.1,0c1.3,0.1,2.1,1.4,2.1,1.5
		c0.1,0.2,0,0.5-0.2,0.6s-0.5,0-0.6-0.2c0,0-0.5-1-1.4-1l0,0C7,14.9,6.6,16,6.6,16C6.3,16.2,6.2,16.4,6.1,16.4z"/>
</g>
</svg>
