<?xml version="1.0" encoding="utf-8"?>
<!-- Generator: Adobe Illustrator 16.0.4, SVG Export Plug-In . SVG Version: 6.00 Build 0)  -->
<!DOCTYPE svg PUBLIC "-//W3C//DTD SVG 1.1//EN" "http://www.w3.org/Graphics/SVG/1.1/DTD/svg11.dtd">
<svg version="1.1" id="Layer_1" xmlns="http://www.w3.org/2000/svg" xmlns:xlink="http://www.w3.org/1999/xlink" x="0px" y="0px"
	 width="140.819px" height="32.415px" viewBox="0 0 140.819 32.415" enable-background="new 0 0 140.819 32.415"
	 xml:space="preserve">
<g>
	<path fill="#D7A75B" d="M13.633,5.146c0,0,3.276,10.586-0.869,13.603c-1.366,0.995-9.314,5.331-11.033,3.72
		c-1.452-1.359-0.384-7.988,0.187-9.86C2.854,9.553,7.636,5.146,13.633,5.146z"/>
</g>
<g>
	<g>
		<path fill="#231F20" d="M41.738,11.178h2.929v6.575h0.041c0.81-1.069,1.836-1.704,3.366-1.704c3.451,0,4.719,2.753,4.719,5.853
			c0,3.08-1.268,5.92-4.719,5.92c-1.249,0-2.602-0.433-3.454-1.635h-0.044v1.379h-2.84V11.178H41.738z M47.267,25.551
			c1.924,0,2.466-2.093,2.466-3.646c0-1.506-0.521-3.583-2.428-3.583c-1.874,0-2.618,2.01-2.618,3.583
			C44.689,23.499,45.321,25.551,47.267,25.551z"/>
	</g>
	<g>
		<path fill="#231F20" d="M60.252,16.049c3.342,0,5.897,2.249,5.897,5.962c0,3.23-2.163,5.811-5.897,5.811
			c-3.715,0-5.878-2.58-5.878-5.811C54.376,18.301,56.931,16.049,60.252,16.049z M60.252,25.551c2.25,0,2.84-2.01,2.84-3.889
			c0-1.723-0.919-3.34-2.84-3.34c-1.899,0-2.818,1.657-2.818,3.34C57.433,23.521,58.024,25.551,60.252,25.551z"/>
	</g>
	<g>
		<path fill="#231F20" d="M68.408,16.312h2.729v1.568h0.046c0.918-1.377,2.249-1.831,3.343-1.831c1.573,0,2.688,0.586,3.32,1.984
			c0.677-1.35,2.144-1.984,3.518-1.984c2.775,0,3.562,1.9,3.562,4.41v7.101H82v-6.708c0-1.048,0-2.536-1.683-2.536
			c-1.943,0-2.182,2.315-2.182,3.778v5.461h-2.927v-6.707c0-1.048,0-2.537-1.684-2.537c-1.945,0-2.186,2.315-2.186,3.777v5.465
			h-2.928L68.408,16.312L68.408,16.312z"/>
	</g>
	<g>
		<path fill="#231F20" d="M96.906,26.93c-1.068,0.586-2.293,0.892-3.865,0.892c-3.715,0-5.877-2.139-5.877-5.83
			c0-3.256,1.723-5.942,5.218-5.942c4.172,0,5.354,2.858,5.354,6.792h-7.781c0.132,1.812,1.401,2.842,3.215,2.842
			c1.415,0,2.64-0.526,3.734-1.139L96.906,26.93L96.906,26.93z M94.941,20.833c-0.089-1.417-0.744-2.643-2.383-2.643
			s-2.468,1.134-2.604,2.643H94.941z"/>
	</g>
	<g>
		<path fill="#231F20" d="M98.311,30.142c1.573-0.088,1.793-0.395,1.793-2.144V16.312h2.928v12.08c0,1.596-0.459,4.023-3.387,4.023
			c-0.481,0-1.072-0.068-1.441-0.179L98.311,30.142z M100.104,11.46h2.928v2.797h-2.928V11.46z"/>
	</g>
	<g>
		<path fill="#231F20" d="M115.138,26.93c-1.07,0.586-2.294,0.892-3.866,0.892c-3.714,0-5.878-2.139-5.878-5.83
			c0-3.256,1.723-5.942,5.222-5.942c4.167,0,5.351,2.858,5.351,6.792h-7.777c0.127,1.812,1.398,2.842,3.211,2.842
			c1.421,0,2.645-0.526,3.734-1.139L115.138,26.93L115.138,26.93z M113.172,20.833c-0.09-1.417-0.745-2.643-2.382-2.643
			c-1.642,0-2.468,1.134-2.599,2.643H113.172z"/>
	</g>
	<g>
		<path fill="#231F20" d="M118.334,11.178h2.93v16.388h-2.93V11.178z"/>
	</g>
	<g>
		<path fill="#231F20" d="M124.411,11.178h2.93v16.388h-2.93V11.178z"/>
	</g>
	<g>
		<path fill="#231F20" d="M135.096,24.525h0.045l2.704-8.214h2.973l-4.214,11.164c-0.943,2.49-1.615,4.939-4.675,4.939
			c-0.699,0-1.399-0.114-2.074-0.306l0.191-2.167c0.372,0.131,0.79,0.196,1.508,0.196c1.179,0,1.9-0.806,1.9-2.012l-4.302-11.815
			h3.231L135.096,24.525z"/>
	</g>
</g>
<g>
	<path fill="#231F20" d="M13.942,32.226c-7.69,0-13.941-6.254-13.941-13.939c0-7.689,6.253-13.94,13.941-13.94
		c7.687,0,13.942,6.254,13.942,13.94C27.881,25.972,21.628,32.226,13.942,32.226z M13.942,5.709
		c-6.936,0-12.576,5.643-12.576,12.575s5.642,12.572,12.576,12.572c6.933,0,12.575-5.64,12.575-12.572
		C26.519,11.352,20.875,5.709,13.942,5.709z"/>
</g>
<g>
	<path fill="#231F20" d="M13.942,30.479c-3.385,0-6.139-2.753-6.139-6.135s2.754-6.138,6.139-6.138c3.382,0,6.134,2.756,6.134,6.138
		C20.078,27.726,17.326,30.479,13.942,30.479z M13.942,19.114c-2.883,0-5.229,2.347-5.229,5.229c0,2.877,2.345,5.222,5.229,5.222
		c2.882,0,5.223-2.345,5.223-5.222C19.167,21.461,16.824,19.114,13.942,19.114z"/>
</g>
<g>
	<ellipse fill="#231F20" cx="13.942" cy="22.116" rx="2.583" ry="1.86"/>
</g>
<g>
	<circle fill="#231F20" cx="6.691" cy="18.685" r="1.567"/>
</g>
<g>
	<circle fill="#231F20" cx="21.41" cy="18.685" r="1.567"/>
</g>
<g>
	<path fill="#231F20" d="M21.974,8.422c-0.293,0-0.568-0.194-0.653-0.493l-1.597-5.458l-1.765,3.273
		c-0.181,0.331-0.592,0.455-0.929,0.274c-0.331-0.178-0.456-0.594-0.273-0.925l2.55-4.735c0.132-0.246,0.397-0.388,0.673-0.356
		c0.275,0.029,0.507,0.222,0.585,0.487l2.065,7.056c0.107,0.362-0.102,0.739-0.462,0.846C22.104,8.413,22.038,8.422,21.974,8.422z"
		/>
</g>
<g>
	<path fill="#231F20" d="M5.624,8.422c-0.064,0-0.128-0.009-0.188-0.03C5.073,8.288,4.866,7.907,4.969,7.545l2.068-7.052
		C7.115,0.226,7.346,0.034,7.62,0.004c0.281-0.038,0.542,0.112,0.673,0.355l2.555,4.738c0.177,0.33,0.055,0.745-0.278,0.925
		c-0.331,0.18-0.747,0.053-0.925-0.276L7.879,2.471L6.282,7.929C6.194,8.228,5.919,8.422,5.624,8.422z"/>
</g>
<g>
	<path fill="#231F20" d="M22.977,15.17c-0.194,0-0.373-0.125-0.435-0.319c-0.004-0.013-0.379-1.143-1.091-1.143
		c-0.011,0-0.02,0-0.028,0c-0.819,0.033-1.354,0.987-1.36,0.999c-0.117,0.221-0.393,0.304-0.617,0.185
		c-0.222-0.117-0.305-0.394-0.185-0.616c0.03-0.06,0.781-1.422,2.125-1.479c1.418-0.069,1.997,1.708,2.018,1.782
		c0.074,0.238-0.058,0.495-0.3,0.57C23.066,15.162,23.022,15.17,22.977,15.17z"/>
</g>
<g>
	<path fill="#231F20" d="M4.77,15.17c-0.047,0-0.09-0.006-0.137-0.021c-0.239-0.075-0.374-0.332-0.298-0.57
		c0.023-0.074,0.569-1.782,1.954-1.782c0.021,0,0.04,0,0.064,0c1.345,0.054,2.094,1.417,2.128,1.477
		c0.115,0.223,0.035,0.495-0.188,0.615C8.07,15.01,7.8,14.928,7.677,14.707c-0.005-0.012-0.539-0.969-1.363-0.999
		c-0.007,0-0.016,0-0.025,0c-0.711,0-1.085,1.126-1.092,1.141C5.145,15.045,4.964,15.17,4.77,15.17z"/>
</g>
</svg>
