<?xml version="1.0" encoding="utf-8"?>
<!-- Generator: Adobe Illustrator 19.2.0, SVG Export Plug-In . SVG Version: 6.00 Build 0)  -->
<svg version="1.1" id="Layer_1" xmlns="http://www.w3.org/2000/svg" xmlns:xlink="http://www.w3.org/1999/xlink" x="0px" y="0px"
	 viewBox="0 0 140.8 32.4" style="enable-background:new 0 0 140.8 32.4;" xml:space="preserve">
<style type="text/css">
	.st0{fill:#D7A75B;}
	.st1{fill:#FFFFFF;}
</style>
<g>
	<path class="st0" d="M13.6,5.1c0,0,3.3,10.6-0.9,13.6c-1.4,1-9.3,5.3-11,3.7c-1.5-1.4-0.4-8,0.2-9.9C2.9,9.6,7.6,5.1,13.6,5.1z"/>
</g>
<g>
	<g>
		<path class="st1" d="M41.7,11.2h2.9v6.6l0,0c0.8-1.1,1.8-1.7,3.4-1.7c3.5,0,4.7,2.8,4.7,5.9s-1.3,5.9-4.7,5.9
			c-1.2,0-2.6-0.4-3.5-1.6l0,0v1.4h-2.8L41.7,11.2L41.7,11.2z M47.3,25.6c1.9,0,2.5-2.1,2.5-3.6s-0.5-3.6-2.4-3.6s-2.6,2-2.6,3.6
			C44.7,23.5,45.3,25.6,47.3,25.6z"/>
	</g>
	<g>
		<path class="st1" d="M60.3,16c3.3,0,5.9,2.2,5.9,6c0,3.2-2.2,5.8-5.9,5.8s-5.9-2.6-5.9-5.8C54.4,18.3,56.9,16,60.3,16z M60.3,25.6
			c2.2,0,2.8-2,2.8-3.9c0-1.7-0.9-3.3-2.8-3.3c-1.9,0-2.8,1.7-2.8,3.3C57.4,23.5,58,25.6,60.3,25.6z"/>
	</g>
	<g>
		<path class="st1" d="M68.4,16.3h2.7v1.6l0,0c0.9-1.4,2.2-1.8,3.3-1.8c1.6,0,2.7,0.6,3.3,2c0.7-1.4,2.1-2,3.5-2
			c2.8,0,3.6,1.9,3.6,4.4v7.1H82v-6.7c0-1,0-2.5-1.7-2.5c-1.9,0-2.2,2.3-2.2,3.8v5.5h-2.9V21c0-1,0-2.5-1.7-2.5
			c-1.9,0-2.2,2.3-2.2,3.8v5.5h-2.9L68.4,16.3L68.4,16.3z"/>
	</g>
	<g>
		<path class="st1" d="M96.9,26.9c-1.1,0.6-2.3,0.9-3.9,0.9c-3.7,0-5.9-2.1-5.9-5.8c0-3.3,1.7-5.9,5.2-5.9c4.2,0,5.4,2.9,5.4,6.8H90
			c0.1,1.8,1.4,2.8,3.2,2.8c1.4,0,2.6-0.5,3.7-1.1L96.9,26.9L96.9,26.9z M94.9,20.8c-0.1-1.4-0.7-2.6-2.4-2.6s-2.5,1.1-2.6,2.6H94.9
			z"/>
	</g>
	<g>
		<path class="st1" d="M98.3,30.1c1.6-0.1,1.8-0.4,1.8-2.1V16.3h2.9v12.1c0,1.6-0.5,4-3.4,4c-0.5,0-1.1-0.1-1.4-0.2L98.3,30.1z
			 M100.1,11.5h2.9v2.8h-2.9V11.5z"/>
	</g>
	<g>
		<path class="st1" d="M115.1,26.9c-1.1,0.6-2.3,0.9-3.9,0.9c-3.7,0-5.9-2.1-5.9-5.8c0-3.3,1.7-5.9,5.2-5.9c4.2,0,5.4,2.9,5.4,6.8
			h-7.8c0.1,1.8,1.4,2.8,3.2,2.8c1.4,0,2.6-0.5,3.7-1.1L115.1,26.9L115.1,26.9z M113.2,20.8c-0.1-1.4-0.7-2.6-2.4-2.6
			c-1.6,0-2.5,1.1-2.6,2.6H113.2z"/>
	</g>
	<g>
		<path class="st1" d="M118.3,11.2h2.9v16.4h-2.9V11.2z"/>
	</g>
	<g>
		<path class="st1" d="M124.4,11.2h2.9v16.4h-2.9V11.2z"/>
	</g>
	<g>
		<path class="st1" d="M135.1,24.5L135.1,24.5l2.7-8.2h3l-4.2,11.2c-0.9,2.5-1.6,4.9-4.7,4.9c-0.7,0-1.4-0.1-2.1-0.3l0.2-2.2
			c0.4,0.1,0.8,0.2,1.5,0.2c1.2,0,1.9-0.8,1.9-2l-4.3-11.8h3.2L135.1,24.5z"/>
	</g>
</g>
<g>
	<path class="st1" d="M13.9,32.2C6.3,32.2,0,26,0,18.3s6.3-14,13.9-14c7.7,0,13.9,6.3,13.9,13.9C27.9,26,21.6,32.2,13.9,32.2z
		 M13.9,5.7C7,5.7,1.4,11.4,1.4,18.3S7,30.9,13.9,30.9s12.6-5.6,12.6-12.6C26.5,11.4,20.9,5.7,13.9,5.7z"/>
</g>
<g>
	<path class="st1" d="M13.9,30.5c-3.4,0-6.1-2.8-6.1-6.1s2.8-6.1,6.1-6.1c3.4,0,6.1,2.8,6.1,6.1C20.1,27.7,17.3,30.5,13.9,30.5z
		 M13.9,19.1c-2.9,0-5.2,2.3-5.2,5.2s2.3,5.2,5.2,5.2s5.2-2.3,5.2-5.2C19.2,21.5,16.8,19.1,13.9,19.1z"/>
</g>
<g>
	<ellipse class="st1" cx="13.9" cy="22.1" rx="2.6" ry="1.9"/>
</g>
<g>
	<circle class="st1" cx="6.7" cy="18.7" r="1.6"/>
</g>
<g>
	<circle class="st1" cx="21.4" cy="18.7" r="1.6"/>
</g>
<g>
	<path class="st1" d="M22,8.4c-0.3,0-0.6-0.2-0.7-0.5l-1.6-5.5L18,5.7c-0.2,0.4-0.6,0.5-1,0.3c-0.3-0.2-0.5-0.6-0.3-0.9l2.5-4.7
		C19.4,0.1,19.7,0,20,0s0.5,0.2,0.6,0.5l2.1,7.1c0.1,0.4-0.1,0.7-0.5,0.8C22.1,8.4,22,8.4,22,8.4z"/>
</g>
<g>
	<path class="st1" d="M5.6,8.4c-0.1,0-0.1,0-0.2,0C5.1,8.3,4.9,7.9,5,7.5l2-7C7.1,0.2,7.3,0,7.6,0c0.3,0,0.5,0.1,0.7,0.4l2.6,4.7
		c0.1,0.3,0,0.7-0.3,0.9c-0.3,0.2-0.7,0.1-0.9-0.3L7.9,2.5L6.3,7.9C6.2,8.2,5.9,8.4,5.6,8.4z"/>
</g>
<g>
	<path class="st1" d="M23,15.2c-0.2,0-0.4-0.1-0.4-0.3c0,0-0.4-1.1-1.1-1.1l0,0c-0.8,0-1.4,1-1.4,1C20,15,19.7,15.1,19.5,15
		s-0.3-0.4-0.2-0.6c0-0.1,0.8-1.4,2.1-1.5c1.4-0.1,2,1.7,2,1.8c0.1,0.2-0.1,0.5-0.3,0.6C23.1,15.2,23,15.2,23,15.2z"/>
</g>
<g>
	<path class="st1" d="M4.8,15.2L4.8,15.2c-0.3-0.1-0.5-0.3-0.4-0.6c0-0.1,0.6-1.8,2-1.8c0,0,0,0,0.1,0c1.3,0.1,2.1,1.4,2.1,1.5
		c0.1,0.2,0,0.5-0.2,0.6s-0.5,0-0.6-0.2c0,0-0.5-1-1.4-1l0,0c-0.7,0-1.1,1.1-1.1,1.1C5.1,15,5,15.2,4.8,15.2z"/>
</g>
</svg>
